<?xml version="1.0" encoding="UTF-8"?>
<svg xmlns="http://www.w3.org/2000/svg"
     viewBox="0 0 512 512"
     width="512" height="512"
     role="img" aria-labelledby="title desc">
  <title id="title">Taskify logo</title>
  <desc id="desc">Rounded square icon with rising bar chart and checkmark</desc>

  <defs>
    <linearGradient id="bgGrad" x1="0" y1="0" x2="1" y2="1">
      <stop offset="0" stop-color="#2979FF"/>
      <stop offset="1" stop-color="#00BFA6"/>
    </linearGradient>
    <filter id="shadow" x="-20%" y="-20%" width="140%" height="140%">
      <feOffset in="SourceAlpha" dx="0" dy="8" result="off"/>
      <feGaussianBlur in="off" stdDeviation="12" result="blur"/>
      <feColorMatrix in="blur" type="matrix"
        values="0 0 0 0 0
                0 0 0 0 0
                0 0 0 0 0
                0 0 0 0.25" result="shadow"/>
      <feBlend in="SourceGraphic" in2="shadow" mode="normal"/>
    </filter>
    <linearGradient id="barsGrad" x1="0" y1="0" x2="0" y2="1">
      <stop offset="0" stop-color="#FFFFFF" stop-opacity="0.14"/>
      <stop offset="1" stop-color="#000000" stop-opacity="0.06"/>
    </linearGradient>
  </defs>

  <rect x="32" y="32" width="448" height="448" rx="72" ry="72"
        fill="url(#bgGrad)" filter="url(#shadow)"/>
  <rect x="96" y="96" width="320" height="320" rx="48" ry="48"
        fill="rgba(255,255,255,0.06)"/>

  <rect x="168" y="232" width="40" height="120" rx="8" ry="8" fill="#FFFFFF" opacity="0.92"/>
  <rect x="232" y="184" width="40" height="168" rx="8" ry="8" fill="#FFFFFF" opacity="0.92"/>
  <rect x="296" y="280" width="40" height="72" rx="8" ry="8" fill="#FFFFFF" opacity="0.92"/>

  <g opacity="0.18" fill="url(#barsGrad)">
    <rect x="168" y="232" width="40" height="120" rx="8" ry="8"/>
    <rect x="232" y="184" width="40" height="168" rx="8" ry="8"/>
    <rect x="296" y="280" width="40" height="72" rx="8" ry="8"/>
  </g>

  <path d="M132 272 L210 344 L382 160"
        fill="none" stroke="#002147" stroke-width="28"
        stroke-linecap="round" stroke-linejoin="round" opacity="0.98"/>
  <path d="M132 272 L210 344 L382 160"
        fill="none" stroke="#00E0A9" stroke-width="10"
        stroke-linecap="round" stroke-linejoin="round" opacity="0.95"/>

  <g transform="translate(180,118)" fill="#FFFFFF" opacity="0.92">
    <rect x="0" y="0" width="72" height="12" rx="6" ry="6"/>
    <rect x="30" y="12" width="12" height="36" rx="6" ry="6"/>
  </g>
</svg>
